<?xml version="1.0" encoding="utf-8"?>
<!-- Generator: Adobe Illustrator 15.1.0, SVG Export Plug-In . SVG Version: 6.00 Build 0)  -->
<!DOCTYPE svg PUBLIC "-//W3C//DTD SVG 1.1//EN" "http://www.w3.org/Graphics/SVG/1.1/DTD/svg11.dtd">
<svg version="1.1" id="Ebene_1" xmlns="http://www.w3.org/2000/svg" xmlns:xlink="http://www.w3.org/1999/xlink" x="0px" y="0px"
	 width="290px" height="40px" viewBox="0 0 290 40" enable-background="new 0 0 290 40" xml:space="preserve">
<path d="M264.417,3c-0.919,2.388-1.63,5.333-2.404,8.544C259.672,21.25,256.768,33.29,247.451,37h19
	c9.316-3.71,12.221-15.75,14.562-25.456c0.774-3.212,1.485-6.157,2.404-8.544H264.417z"/>
<path d="M25.588,3c0.919,2.388,1.63,5.333,2.404,8.544C30.333,21.25,33.237,33.29,42.554,37h-19
	c-9.316-3.71-12.221-15.75-14.562-25.456C8.218,8.333,7.507,5.388,6.588,3H25.588z"/>
</svg>
